<svg width="375" height="226" viewBox="0 0 375 226" fill="none" xmlns="http://www.w3.org/2000/svg">
<rect width="375" height="226" fill="#1C1C1E"/>
<mask id="mask0_70_10852" style="mask-type:alpha" maskUnits="userSpaceOnUse" x="235" y="86" width="140" height="140">
<rect x="235" y="86" width="140" height="140" fill="#C4C4C4"/>
</mask>
<g mask="url(#mask0_70_10852)">
<g opacity="0.2">
<path d="M322.28 168.815C323.941 168.815 325.285 167.469 325.285 165.81C325.285 164.151 323.941 162.805 322.28 162.805C320.621 162.805 319.275 164.151 319.275 165.81C319.275 167.469 320.621 168.815 322.28 168.815Z" fill="#32D74B"/>
<path d="M317.084 203.684C318.112 203.684 318.946 202.85 318.946 201.823C318.946 200.795 318.112 199.963 317.084 199.963C316.057 199.963 315.224 200.795 315.224 201.823C315.224 202.85 316.057 203.684 317.084 203.684Z" fill="#32D74B"/>
<path d="M311.384 165.188C312.283 165.188 313.012 164.458 313.012 163.559C313.012 162.66 312.283 161.931 311.384 161.931C310.486 161.931 309.757 162.66 309.757 163.559C309.757 164.458 310.486 165.188 311.384 165.188Z" fill="#32D74B"/>
<path d="M240.215 172.854C243.033 170.389 239.158 166.161 236.693 168.628C234.227 171.093 237.287 175.416 240.215 172.854Z" fill="#32D74B"/>
<path d="M319.814 210.894C315.688 210.575 307.487 211.949 309.951 205.657C311.362 203.672 313.298 202.617 310.585 199.377C306.254 193.635 314.707 195.571 313.651 190.818C313.235 188.789 308.897 192.049 308.136 187.246C307.33 185.133 309.237 182.784 312.407 181.726C314.91 180.892 314.463 179.007 312.671 179.349C307.124 180.405 308.973 178.028 313.727 175.122C316.049 173.704 315.228 171.427 315.048 171.16C313.993 170.104 312.321 171.092 310.558 172.482C307.211 175.119 302.249 179.256 300.266 176.904C296.568 172.678 305.55 168.1 302.028 165.632C297.978 163.696 297.951 172.973 294.414 172.049C292.586 171.571 291.783 170.644 291.317 169.783C290.852 168.922 290.72 168.13 290.228 167.923C288.83 167.331 288.639 168.915 287.217 169.521C286.744 169.723 286.134 169.817 285.298 169.683C281.423 169.508 279.951 167.635 279.073 166.093C277.974 164.164 279.134 158.413 275.789 158.94C272.441 158.94 273.677 162.226 274.83 165.498C276.493 170.212 268.193 174.53 266.784 168.013C266.226 165.437 264.09 165.355 263.421 165.771C261.628 166.892 263.595 168.372 264.405 170.34C265.222 172.325 263.854 173.239 260.996 173.557C258.883 173.793 253.808 166.146 252.425 164.635C248.722 160.591 247.984 155.855 245.028 158.179C241.741 160.761 247.769 163.82 249.842 166.161C251.38 167.901 257.649 173.205 257.385 177.339C256.945 179.546 253.924 181.124 252.19 178.841C248.844 174.438 245.497 174.616 244.441 178.313C243.64 181.116 246.379 182.186 249.9 183.948C253.423 185.709 251.134 193.106 246.379 192.049C243.265 191.357 240.918 188.703 240.038 190.992C239.686 192.754 243.306 192.882 244.97 193.459C249.548 195.044 248.316 198.036 248.256 199.377C248.196 200.717 247.096 203.728 245.525 204.633C243.783 205.641 241.094 204.723 239.009 204.395C237.126 204.096 234.813 205.624 235.012 207.612C235.276 210.255 237.805 210.234 239.767 209.725C241.882 209.18 244.468 207.892 245.968 207.958C248.595 208.075 250.43 209.836 250.706 211.507C251.602 212.888 251.956 216.763 249.251 217.932C247.908 218.513 247.305 219.854 247.691 221.084C248.88 223.556 251.163 222.98 252.301 221.21C253.951 218.642 256.887 219.581 258.258 222.933C260.526 227.799 246.635 232.443 251.389 236.933C257.2 241.423 257.826 228.855 263.805 227.16C265.047 226.8 266.675 226.763 267.891 227.647C271.326 230.147 265.222 232.613 267.688 234.14C270.024 235.586 268.627 229.325 273.139 229.907C274.267 230.202 275.544 231.154 275.748 231.86C276.276 233.69 272.599 240.695 276.219 240.895C279.785 241.555 277.452 233.134 279.29 231.473C279.904 230.919 279.3 229.449 283.008 230.616C289.289 232.906 290.256 260.557 296.217 256.504C300.618 253.509 287.075 236.954 289.289 229.209C289.524 228.385 290.464 226.742 292.595 227.16C295.536 227.733 297.728 234.554 299.385 233.435C301.044 232.314 294.631 223.924 301.324 222.162C305.198 221.635 305.902 226.566 308.719 222.515C310.068 220.577 304.317 219.52 305.263 216.802C307.838 212.653 313.42 219.142 316.644 220.754C320.871 222.868 324.871 220.845 325.801 218.642C327.211 214.414 324.393 211.245 319.814 210.894Z" fill="#32D74B"/>
<path d="M323.361 95.2605C323.361 97.7287 321.361 99.7282 318.894 99.7282C316.428 99.7282 314.427 97.7287 314.427 95.2605C314.427 92.7938 316.428 90.7943 318.894 90.7943C321.361 90.7943 323.361 92.7938 323.361 95.2605Z" fill="#FF2D55"/>
<path d="M329.003 96.671C329.003 97.3212 328.478 97.847 327.827 97.847C327.177 97.847 326.651 97.321 326.651 96.671C326.651 96.0216 327.177 95.4959 327.827 95.4959C328.478 95.4959 329.003 96.0216 329.003 96.671Z" fill="#FF2D55"/>
<path d="M334.174 98.7884C334.174 97.4879 335.015 96.4356 336.055 96.4356C337.094 96.4356 337.936 97.4881 337.936 98.7884C337.936 100.086 337.094 101.14 336.055 101.14C335.015 101.14 334.174 100.086 334.174 98.7884Z" fill="#FF2D55"/>
<path d="M291.737 136.002C291.375 138.13 289.406 139.571 287.338 139.22C285.272 138.87 283.889 136.86 284.251 134.733C284.611 132.605 286.58 131.164 288.647 131.513C290.713 131.865 292.096 133.873 291.737 136.002Z" fill="#FF2D55"/>
<path d="M288.304 146.98C288.304 145.924 289.159 145.069 290.214 145.069C291.269 145.069 292.125 145.924 292.125 146.98C292.125 148.035 291.269 148.89 290.214 148.89C289.159 148.89 288.304 148.035 288.304 146.98Z" fill="#FF2D55"/>
<path d="M294.209 199.405C294.209 201.482 292.527 203.165 290.45 203.165C288.371 203.165 286.688 201.482 286.688 199.405C286.688 197.327 288.371 195.641 290.45 195.641C292.527 195.641 294.209 197.327 294.209 199.405Z" fill="#FF2D55"/>
<path d="M366.147 214.448C366.147 216.006 364.884 217.271 363.326 217.271C361.767 217.271 360.504 216.006 360.504 214.448C360.504 212.892 361.767 211.628 363.326 211.628C364.884 211.628 366.147 212.891 366.147 214.448Z" fill="#FF2D55"/>
<path d="M401.644 162.261C403.526 162.613 405.289 161.555 405.171 159.791C405.061 158.15 403.186 157.155 401.72 157.263C399.589 157.418 384.601 160.498 382.868 150.724C382.483 148.547 382.837 144.394 389.291 142.829C392.343 142.09 392.401 139.304 391.771 137.809C391.14 136.318 388.381 134.65 386.442 136.104C379.781 141.104 375.908 140.266 374.713 138.495C373.515 136.726 371.319 131.228 378.606 127.702C385.901 124.171 384.202 119.662 383.071 118.533C381.942 117.404 378.606 115.713 373.671 122.766C370.962 126.633 367.124 125.835 365.372 124.61C358.491 119.807 362.37 115.577 374.713 107.819C376.864 106.467 376.828 101.119 373.435 103.018C371.59 104.048 367.496 109.711 365.99 106.701C365.362 105.446 371.829 95.7744 372.337 95.0256C373.696 93.0199 374.427 90.6156 372.651 89.3044C371.164 88.2084 368.485 90.1038 366.224 94.4776C360.606 105.351 359.594 115.28 350.495 118.351C348.402 119.06 344.168 117.828 344.369 112.587C344.425 111.115 343.087 110.036 342.055 110.036C341.019 110.036 339.415 110.694 339.736 112.587C340.285 115.832 338.643 118.416 333.729 118.351C328.701 118.284 325.74 110.76 325.23 109.113C324.511 106.79 322.059 102.758 319.483 103.724C316.661 104.782 318.178 109.464 321.151 112.875C325.276 117.605 322.057 123.922 318.852 124.61C317.547 124.89 316.309 126.997 312.85 123.923C310.949 122.234 308.548 117.124 305.024 119.71C301.796 122.076 304.497 126.716 307.264 129.346C309.492 131.465 309.492 134.051 309.022 135.461C308.345 137.488 306.755 140.175 303.405 137.904C301.399 136.545 297.897 137.728 297.267 139.222C296.634 140.714 297.503 144.394 300.558 144.628C303.931 144.889 302.44 149.565 301.355 150.724C296.2 156.238 287.15 153.774 283.033 152.639C280.669 151.987 278.782 154.774 278.782 156.499C278.782 158.222 280.658 160.973 283.033 160.357C292.553 157.89 301.369 161.769 301.355 167.491C301.322 182.107 282.066 184.676 278.689 185.672C276.359 186.36 275.579 189.197 276.21 190.691C276.841 192.185 279.558 193.794 281.538 192.397C284.259 190.476 300.734 176.968 307.616 182.368C312.549 186.237 309.126 193.031 300.513 197.585C298.378 198.713 297.923 202.841 299.253 203.728C302.426 205.843 304.392 204.764 305.601 202.67C310.89 193.503 310.89 191.388 318.852 193.606C321.159 194.248 324.381 197.289 320.974 199.778C319.019 201.21 318.648 205.14 321.819 206.901C324.744 208.526 327.406 205.037 327.698 202.625C328.14 199.011 331.52 199.747 333.729 199.862C342.637 200.344 336.982 213.952 335.924 220.302C334.895 226.464 339.121 227.002 340.154 227.002C342.976 227.002 349.324 223.474 345.445 216.423C343.236 212.408 343.58 200.344 350.495 199.863C352.703 199.712 355.253 198.229 356.526 202.625C357.201 204.962 360.05 205.737 361.544 205.107C363.035 204.477 365.527 201.268 363.748 199.445C360.427 196.033 364.265 194.352 365.372 193.606C366.478 192.858 371.297 193.535 373.435 197.052C379.255 206.63 384.482 201.756 384.953 198.229C385.485 194.238 381.662 192.823 377.196 191.175C372.762 189.542 373.626 184.995 374.373 183.888C375.122 182.782 379.077 178.01 382.448 180.744C384.427 182.349 387.48 180.032 388.11 178.541C388.742 177.047 388.239 173.54 385.756 172.912C382.367 172.056 382.634 168.854 382.868 167.492C384.365 158.734 399.385 161.835 401.644 162.261Z" fill="#FF2D55"/>
</g>
</g>
<mask id="mask1_70_10852" style="mask-type:alpha" maskUnits="userSpaceOnUse" x="0" y="0" width="128" height="136">
<rect width="128" height="136" fill="#C4C4C4"/>
</mask>
<g mask="url(#mask1_70_10852)">
<path d="M7.85446 10.1078C7.85446 11.0244 7.11079 11.77 6.19338 11.77C5.27408 11.77 4.53174 11.0244 4.53174 10.1078C4.53174 9.18945 5.27389 8.44635 6.19338 8.44635C7.11079 8.44635 7.85446 9.18945 7.85446 10.1078Z" fill="#6141DA" fill-opacity="0.7"/>
<path d="M17.8259 13.0155C17.8259 14.1628 16.8953 15.0924 15.7488 15.0924C14.6006 15.0924 13.67 14.1628 13.67 13.0155C13.67 11.869 14.6004 10.9386 15.7488 10.9386C16.8953 10.9386 17.8259 11.869 17.8259 13.0155Z" fill="#6141DA" fill-opacity="0.7"/>
<path d="M41.0874 -3.18589C41.0874 -5.47874 42.9466 -7.33905 45.2396 -7.33905C47.5344 -7.33905 49.3937 -5.47874 49.3937 -3.18589C49.3937 -0.889619 47.5342 0.969169 45.2396 0.969169C42.9466 0.968978 41.0874 -0.889619 41.0874 -3.18589Z" fill="#6141DA" fill-opacity="0.7"/>
<path d="M59.3634 2.63121C59.3634 3.54861 58.6212 4.29228 57.7036 4.29228C56.7845 4.29228 56.0406 3.54861 56.0406 2.63121C56.0406 1.71361 56.7843 0.968994 57.7036 0.968994C58.6212 0.968994 59.3634 1.71361 59.3634 2.63121Z" fill="#6141DA" fill-opacity="0.7"/>
<path d="M96.75 15.0924C96.75 16.4688 95.6326 17.5852 94.2574 17.5852C92.8817 17.5852 91.7662 16.4688 91.7662 15.0924C91.7662 13.7154 92.8817 12.5997 94.2574 12.5997C95.6328 12.5999 96.75 13.7154 96.75 15.0924Z" fill="#6141DA" fill-opacity="0.7"/>
<path d="M124.996 43.339C124.996 45.1742 123.51 46.6642 121.673 46.6642C119.838 46.6642 118.35 45.1742 118.35 43.339C118.35 41.5046 119.838 40.0163 121.673 40.0163C123.51 40.0163 124.996 41.5046 124.996 43.339Z" fill="#6141DA" fill-opacity="0.7"/>
<path d="M100.904 47.9087C100.904 46.7614 101.833 45.8309 102.98 45.8309C104.126 45.8309 105.057 46.7614 105.057 47.9087C105.057 49.0552 104.126 49.9863 102.98 49.9863C101.833 49.9865 100.904 49.0552 100.904 47.9087Z" fill="#6141DA" fill-opacity="0.7"/>
<path d="M105.057 85.7103C105.057 87.0867 103.943 88.2024 102.566 88.2024C101.187 88.2024 100.073 87.0867 100.073 85.7103C100.073 84.3324 101.187 83.2169 102.566 83.2169C103.943 83.2167 105.057 84.3324 105.057 85.7103Z" fill="#6141DA" fill-opacity="0.7"/>
<path d="M91.7663 113.956C91.7663 115.333 90.6491 116.45 89.2751 116.45C87.8982 116.45 86.7791 115.333 86.7791 113.956C86.7791 112.58 87.898 111.465 89.2751 111.465C90.6491 111.465 91.7663 112.58 91.7663 113.956Z" fill="#6141DA" fill-opacity="0.7"/>
<path d="M58.5336 120.66C58.501 121.808 57.5461 122.711 56.3996 122.679C55.2531 122.647 54.3469 121.691 54.3793 120.546C54.4133 119.397 55.3667 118.496 56.5147 118.527C57.6597 118.56 58.5661 119.513 58.5336 120.66Z" fill="#6141DA" fill-opacity="0.7"/>
<path d="M31.9492 133.065C31.9492 131.689 33.0649 130.571 34.4405 130.571C35.8145 130.571 36.9334 131.689 36.9334 133.065C36.9334 134.441 35.8145 135.556 34.4405 135.556C33.0647 135.556 31.9492 134.441 31.9492 133.065Z" fill="#6141DA" fill-opacity="0.7"/>
<path d="M43.1531 130.146C43.1531 128.077 44.8338 126.399 46.9026 126.399C48.9732 126.399 50.6506 128.077 50.6506 130.146C50.6506 132.218 48.9732 133.896 46.9026 133.896C44.8338 133.896 43.1531 132.218 43.1531 130.146Z" fill="#6141DA" fill-opacity="0.7"/>
<path d="M10.3456 114.788C10.3456 116.164 9.23163 117.281 7.85447 117.281C6.48055 117.281 5.36182 116.163 5.36182 114.788C5.36182 113.411 6.48055 112.295 7.85447 112.295C9.23163 112.295 10.3456 113.411 10.3456 114.788Z" fill="#6141DA" fill-opacity="0.7"/>
<path d="M110.25 60.9929C111.911 61.3061 113.47 60.3708 113.366 58.8127C113.269 57.3619 111.616 56.4839 110.316 56.5783C108.434 56.7162 88.2939 58.3337 85.3107 50.0864C83.25 44.3774 96.6541 37.0355 102.357 35.6551C105.053 35.0015 105.107 32.5404 104.548 31.2201C103.991 29.9006 101.554 28.4293 99.8419 29.713C93.9565 34.1276 82.4184 40.6399 79.4691 37.8475C78.1003 36.5499 76.2554 33.0949 81.5461 29.7448C83.3486 28.6038 83.9398 26.0348 82.2801 24.1633C81.3415 23.1092 78.2462 22.5838 77.0525 25.2512C75.2175 29.3573 70.487 29.4622 68.9881 28.3187C65.8018 25.8934 69.9559 12.5997 81.5882 -1.73092C82.9377 -3.39389 84.8865 -6.86675 80.549 -8.79328C78.6797 -9.62411 75.1494 -7.96189 74.3195 -3.60074C72.0752 8.16968 60.7529 21.6786 56.7124 21.486C53.3395 21.3228 51.498 18.8935 51.6782 14.261C51.7303 12.9628 50.5463 12.0085 49.6337 12.0085C48.7193 12.0085 47.3033 12.5898 47.5859 14.261C48.0716 17.1274 46.2379 21.5427 41.8956 21.486C37.5158 21.4276 31.9487 5.33107 30.2844 0.761167C28.6247 -3.80702 26.7554 -10.6625 21.7684 -8.58548C19.3148 -7.56247 19.1393 -3.11607 23.6392 3.66885C32.4701 16.9852 33.1149 25.3357 29.0616 27.2932C25.5084 29.0091 22.1874 26.1012 18.4474 21.1167C17.0998 19.3205 14.1114 20.0156 13.1127 21.0145C12.1156 22.0124 10.7563 23.9665 13.5156 25.9064C19.6931 30.2546 19.9009 35.3904 18.8257 36.9428C15.1232 42.3002 3.90803 36.07 -1.05464 31.7908C-4.54957 28.7728 -8.866 28.5374 -9.90367 31.4441C-11.3118 35.3815 -5.71055 37.5746 -3.57013 37.7322C-0.587086 37.9504 14.7999 47.1964 14.2819 49.0674C14.1715 49.4661 13.7622 52.5279 12.1009 51.9741C11.5407 51.7884 10.0922 51.6624 9.95232 53.0476C9.87278 53.8516 10.2966 54.756 11.789 54.8828C13.4503 55.02 12.9405 58.5495 12.7228 59.14C11.9774 61.1781 10.1927 62.2053 7.50667 62.4488C5.35007 62.6452 -1.4219 60.9969 -2.2533 64.7346C-3.12522 68.6499 3.36569 68.0969 5.3516 67.2258C7.88174 66.1158 9.11427 65.5196 11.4543 65.5653C21.8394 65.7731 -8.02338 82.1507 -22.0545 86.5404C-24.1039 87.1817 -27.4541 90.6943 -26.2084 93.602C-25.432 95.4128 -21.4309 99.2096 -16.8593 95.0564C-8.34003 87.3094 12.7455 73.2733 18.8253 78.0455C23.1827 81.4647 13.8041 91.8654 6.19289 95.887C4.30746 96.8834 1.62298 100.457 3.70156 103.156C5.58204 105.602 9.90495 104.454 11.1765 102.74C15.9525 96.3021 24.4687 85.2947 28.7528 87.9727C33.9525 91.2239 23.9701 113.731 17.1998 124.341C15.2446 127.407 16.2139 132.09 18.6548 133.065C22.8089 134.725 24.5336 130.615 24.8843 128.496C26.9613 116.034 35.9839 94.0332 40.9696 92.7858C47.847 91.0686 45.2033 109.762 44.4432 112.917C43.935 115.026 45.4988 117.711 47.852 117.852C50.4778 118.004 51.725 115.036 51.2639 112.917C49.7244 105.872 51.2476 95.1268 56.7122 93.5023C64.7622 91.1101 66.5875 102.979 67.312 109.915C67.6708 113.334 70.4347 115.966 71.8265 115.619C75.9789 114.58 76.3964 110.426 73.694 107.102C69.7104 102.2 65.8714 89.1744 69.8535 87.9727C80.8266 84.6614 99.9129 114.149 101.696 117.32C102.795 119.275 106.095 121.227 108.172 119.149C109.942 117.381 110.457 114.373 106.927 112.087C101.077 108.304 77.0849 85.2285 79.7823 78.0457C80.1964 76.9397 81.9615 74.1953 84.9383 76.6092C86.6873 78.0276 89.3864 75.9823 89.9432 74.6611C90.5002 73.3433 90.0585 70.2455 87.8631 69.6905C84.8684 68.9329 85.1055 66.1046 85.3101 64.9029C86.6328 57.1629 108.254 60.6186 110.25 60.9929Z" fill="#6141DA" fill-opacity="0.7"/>
</g>
</svg>
