<svg width="40" height="38" viewBox="0 0 40 38" fill="none" xmlns="http://www.w3.org/2000/svg">
<g clip-path="url(#clip0_181_7231)">
<path d="M35.904 4.19057C35.2645 4.18826 34.6382 4.37347 34.1027 4.7233C33.5672 5.07313 33.1458 5.57227 32.8906 6.15906C32.6354 6.74584 32.5576 7.39457 32.6668 8.0251C32.776 8.65564 33.0674 9.24035 33.505 9.70702L27.6216 15.5235L20.4381 6.44341C21.2076 6.23722 21.876 5.75813 22.3186 5.09541C22.7613 4.43269 22.9481 3.63155 22.8442 2.84125C22.7402 2.05095 22.3527 1.32541 21.7538 0.799823C21.1548 0.274231 20.3854 -0.015564 19.5887 -0.015564C18.7921 -0.015564 18.0226 0.274231 17.4237 0.799823C16.8247 1.32541 16.4372 2.05095 16.3333 2.84125C16.2294 3.63155 16.4161 4.43269 16.8588 5.09541C17.3015 5.75813 17.9698 6.23722 18.7394 6.44341L11.5592 15.5235L5.68078 9.70702C6.19117 9.15375 6.49557 8.4415 6.5428 7.69005C6.59004 6.93861 6.37721 6.19381 5.94013 5.58091C5.50305 4.96802 4.86836 4.52442 4.14282 4.32471C3.41728 4.12501 2.64513 4.18139 1.95625 4.48436C1.26737 4.78734 0.70377 5.31843 0.360238 5.98832C0.0167061 6.65821 -0.0858016 7.42604 0.0699546 8.16266C0.225711 8.89929 0.630229 9.55978 1.21548 10.0331C1.80073 10.5063 2.53101 10.7635 3.2835 10.7614L5.32228 38H33.8652L35.904 10.7614C36.3413 10.7713 36.7762 10.6936 37.1831 10.533C37.5901 10.3724 37.9608 10.132 38.2736 9.82602C38.5864 9.52004 38.8349 9.15461 39.0046 8.75119C39.1743 8.34777 39.2617 7.9145 39.2617 7.47681C39.2617 7.03912 39.1743 6.60584 39.0046 6.20242C38.8349 5.799 38.5864 5.43357 38.2736 5.12759C37.9608 4.82161 37.5901 4.58125 37.1831 4.42063C36.7762 4.26001 36.3413 4.18236 35.904 4.19225V4.19057Z" fill="#1C1C1E"/>
<path d="M29.786 19.533C29.2382 20.1851 28.4374 20.7701 27.4407 21.2646C27.6658 21.9447 27.7789 22.6568 27.7757 23.3733C27.7757 26.1625 26.134 28.4237 24.1069 28.4237C22.4903 28.4237 21.1183 26.9788 20.6308 24.9791C20.5032 24.4533 20.4385 23.9143 20.4381 23.3733C20.4381 23.1956 20.4381 23.0213 20.4582 22.8486C20.1718 22.8587 19.8836 22.867 19.5904 22.867C19.2973 22.867 19.0091 22.867 18.7227 22.8486C18.7344 23.0162 18.7428 23.1956 18.7428 23.3733C18.7423 23.9143 18.6777 24.4533 18.5501 24.9791C18.066 26.9872 16.6939 28.4237 15.0773 28.4237C13.0503 28.4237 11.4085 26.1625 11.4085 23.3733C11.4053 22.6568 11.5185 21.9447 11.7436 21.2646C10.7384 20.7617 9.94602 20.1851 9.39821 19.533C8.63424 21.1114 8.24496 22.845 8.26071 24.5986C8.26071 29.4462 11.0316 33.3753 14.4491 33.3753C16.5917 33.3753 18.4797 31.8315 19.5904 29.4865C20.7011 31.8332 22.5891 33.3753 24.7318 33.3753C28.1493 33.3753 30.9202 29.4462 30.9202 24.5986C30.937 22.8452 30.5488 21.1117 29.786 19.533Z" fill="white"/>
<path d="M27.4406 21.2646C25.6447 22.153 23.2207 22.7363 20.5168 22.8469H20.4615C20.4498 23.0146 20.4414 23.1939 20.4414 23.3716C20.4418 23.9126 20.5065 24.4517 20.6341 24.9774C21.1216 26.9772 22.4936 28.4221 24.1102 28.4221C26.1373 28.4221 27.779 26.1608 27.779 23.3716C27.781 22.6556 27.6667 21.944 27.4406 21.2646Z" fill="#1C1C1E"/>
<path d="M18.7261 22.8486H18.6691C15.9669 22.738 13.5412 22.1547 11.747 21.2663C11.5219 21.9464 11.4087 22.6585 11.4119 23.375C11.4119 26.1642 13.0537 28.4254 15.0807 28.4254C16.6974 28.4254 18.0694 26.9805 18.5569 24.9808C18.6844 24.455 18.7491 23.916 18.7495 23.375C18.7462 23.1956 18.7378 23.0213 18.7261 22.8486Z" fill="#1C1C1E"/>
</g>
<defs>
<clipPath id="clip0_181_7231">
<rect width="39.1875" height="38" fill="white"/>
</clipPath>
</defs>
</svg>
