<svg width="171" height="38" viewBox="0 0 171 38" fill="none" xmlns="http://www.w3.org/2000/svg">
<path fill-rule="evenodd" clip-rule="evenodd" d="M52.956 35.3364H57.4634C60.481 35.3364 61.9899 35.3234 61.9902 35.2974C62.003 35.2847 62.055 33.8342 62.1462 30.946C62.2242 28.6566 62.2828 26.6468 62.3219 24.9167L62.3414 23.5704L62.6926 23.2387C63.5433 22.4255 64.3266 21.5446 65.0347 20.6045C67.4672 17.3655 68.9306 13.6647 69.4249 9.50213C69.5443 8.44625 69.6029 7.38438 69.6005 6.32178L69.6201 4.79977H56.195V9.2297L56.117 9.93234C55.8826 11.6489 55.6092 12.995 55.2969 13.9706C54.9457 15.0636 54.2888 16.3254 53.3262 17.756C53.1536 18.0367 52.936 18.2872 52.6822 18.4975C51.9164 19.0644 51.1221 19.5917 50.3024 20.0774C48.5722 21.1056 46.5689 21.8927 44.2926 22.4389L44 22.5169V28.1949L47.9219 28.1755C50.5106 28.1755 51.909 28.1625 52.117 28.1365C52.1561 28.1365 52.2371 28.1301 52.361 28.1169C52.4433 28.111 52.5249 28.0978 52.6048 28.0776L52.8194 28.058L52.8389 28.4873C52.8389 28.5525 52.8422 28.7054 52.8486 28.9459C52.8551 29.1864 52.8618 29.515 52.8685 29.9316C52.8749 30.3481 52.8781 30.7059 52.8782 31.0048C52.9173 32.9822 52.9368 34.0554 52.9368 34.2243L52.956 35.3364ZM77.7536 35.2779H86.417L86.4561 35.1218C87.1193 32.8325 87.6917 28.4942 88.1731 22.1072C88.2381 21.353 88.2706 20.8912 88.2706 20.7219L88.2902 20.5658H91.5487L91.5682 21.1316C91.5942 22.0423 91.5746 24.0261 91.5096 27.0828C91.4316 30.1788 91.282 32.4618 91.0609 33.9315C90.9957 34.3659 90.9045 34.7959 90.7878 35.2193L90.7682 35.2779H101.227V7.90234H88.8951V4H78.4756L78.4951 5.95074L78.5146 7.90197H74.456V20.5654H78.5536L78.534 21.4824C78.4561 24.7605 78.2999 28.0906 78.0656 31.4727C77.9095 33.6971 77.8119 34.9459 77.7729 35.219L77.7536 35.2779ZM115.838 35.3364H120.346C123.364 35.3364 124.873 35.3234 124.873 35.2974C124.886 35.2847 124.938 33.8342 125.029 30.946C125.107 28.6566 125.166 26.6468 125.205 24.9167L125.224 23.5704L125.575 23.2387C126.426 22.4255 127.209 21.5446 127.917 20.6045C130.35 17.3655 131.813 13.6647 132.308 9.50213C132.427 8.44625 132.486 7.38438 132.483 6.32178L132.503 4.79977H119.079V9.2297L119.001 9.93234C118.767 11.6494 118.493 12.9957 118.181 13.9714C117.83 15.0644 117.173 16.3262 116.211 17.7567C116.038 18.0375 115.82 18.288 115.567 18.4982C114.8 19.0649 114.005 19.592 113.184 20.0774C111.454 21.1052 109.451 21.8922 107.174 22.4384L106.882 22.5164V28.1945L110.804 28.175C113.392 28.175 114.791 28.162 114.999 28.136C115.038 28.136 115.119 28.1296 115.243 28.1164C115.325 28.1106 115.407 28.0976 115.487 28.0775L115.701 28.0579L115.721 28.4872C115.721 28.5524 115.724 28.7052 115.731 28.9458C115.737 29.1863 115.744 29.5148 115.75 29.9311C115.756 30.3476 115.76 30.7054 115.76 31.0043C115.799 32.9817 115.818 34.0549 115.818 34.2238L115.838 35.3364ZM161.945 35.9999C161.971 35.9999 163.415 34.5658 166.277 31.6978C169.139 28.8297 170.57 27.3888 170.57 27.375C170.57 27.3491 168.443 25.3524 164.189 21.3848L157.809 15.4336L160.209 15.4141H162.609V6.6731H157.692L157.672 10.9853V15.2975L153.438 11.317L149.184 7.35601L148.989 7.55115C147.663 8.83898 145.858 10.6113 143.575 12.8682C141.292 15.1251 139.282 17.1251 137.545 18.8681C135.809 20.6112 134.941 21.4957 134.941 21.5219C134.941 21.5349 136.144 22.7447 138.551 25.1511L142.161 28.7609L145.107 25.834L148.034 22.8878L148.248 23.1024C148.391 23.2458 150.707 25.4311 155.195 29.6585C159.683 33.8859 161.933 35.9998 161.946 36L161.945 35.9999ZM163.994 15.4145H168.912V6.6731H163.994V15.4145Z" fill="#1C1C1E"/>
<g clip-path="url(#clip0_0_1)">
<path d="M35.904 4.19057C35.2645 4.18826 34.6382 4.37347 34.1027 4.7233C33.5672 5.07313 33.1458 5.57227 32.8906 6.15906C32.6354 6.74584 32.5576 7.39457 32.6668 8.0251C32.776 8.65564 33.0674 9.24035 33.505 9.70702L27.6216 15.5235L20.4381 6.44341C21.2076 6.23722 21.876 5.75813 22.3186 5.09541C22.7613 4.43269 22.9481 3.63155 22.8442 2.84125C22.7402 2.05095 22.3527 1.32541 21.7538 0.799823C21.1548 0.274231 20.3854 -0.015564 19.5887 -0.015564C18.7921 -0.015564 18.0226 0.274231 17.4237 0.799823C16.8247 1.32541 16.4372 2.05095 16.3333 2.84125C16.2294 3.63155 16.4161 4.43269 16.8588 5.09541C17.3015 5.75813 17.9698 6.23722 18.7394 6.44341L11.5592 15.5235L5.68078 9.70702C6.19117 9.15375 6.49557 8.4415 6.5428 7.69005C6.59004 6.93861 6.37721 6.19381 5.94013 5.58091C5.50305 4.96802 4.86836 4.52442 4.14282 4.32471C3.41728 4.12501 2.64513 4.18139 1.95625 4.48436C1.26737 4.78734 0.70377 5.31843 0.360238 5.98832C0.0167061 6.65821 -0.0858016 7.42604 0.0699546 8.16266C0.225711 8.89929 0.630229 9.55978 1.21548 10.0331C1.80073 10.5063 2.53101 10.7635 3.2835 10.7614L5.32228 38H33.8652L35.904 10.7614C36.3413 10.7713 36.7762 10.6936 37.1831 10.533C37.59 10.3724 37.9608 10.132 38.2736 9.82602C38.5864 9.52004 38.8349 9.15461 39.0046 8.75119C39.1743 8.34777 39.2617 7.9145 39.2617 7.47681C39.2617 7.03912 39.1743 6.60584 39.0046 6.20242C38.8349 5.799 38.5864 5.43357 38.2736 5.12759C37.9608 4.82161 37.59 4.58125 37.1831 4.42063C36.7762 4.26001 36.3413 4.18236 35.904 4.19225V4.19057Z" fill="#1C1C1E"/>
<path d="M29.786 19.533C29.2382 20.1851 28.4374 20.7701 27.4407 21.2646C27.6658 21.9447 27.7789 22.6568 27.7757 23.3733C27.7757 26.1625 26.134 28.4237 24.1069 28.4237C22.4903 28.4237 21.1183 26.9788 20.6308 24.9791C20.5032 24.4533 20.4385 23.9143 20.4381 23.3733C20.4381 23.1956 20.4381 23.0213 20.4582 22.8486C20.1718 22.8587 19.8836 22.867 19.5904 22.867C19.2973 22.867 19.0091 22.867 18.7227 22.8486C18.7344 23.0162 18.7428 23.1956 18.7428 23.3733C18.7423 23.9143 18.6777 24.4533 18.5501 24.9791C18.066 26.9872 16.6939 28.4237 15.0773 28.4237C13.0503 28.4237 11.4085 26.1625 11.4085 23.3733C11.4053 22.6568 11.5185 21.9447 11.7436 21.2646C10.7384 20.7617 9.94602 20.1851 9.39821 19.533C8.63424 21.1114 8.24496 22.845 8.26071 24.5986C8.26071 29.4462 11.0316 33.3753 14.4491 33.3753C16.5917 33.3753 18.4797 31.8315 19.5904 29.4865C20.7011 31.8332 22.5891 33.3753 24.7318 33.3753C28.1493 33.3753 30.9202 29.4462 30.9202 24.5986C30.937 22.8452 30.5488 21.1117 29.786 19.533Z" fill="white"/>
<path d="M27.4406 21.2646C25.6447 22.153 23.2207 22.7363 20.5168 22.8469H20.4615C20.4498 23.0146 20.4414 23.1939 20.4414 23.3716C20.4418 23.9126 20.5065 24.4517 20.6341 24.9774C21.1216 26.9772 22.4936 28.4221 24.1102 28.4221C26.1373 28.4221 27.779 26.1608 27.779 23.3716C27.781 22.6556 27.6667 21.944 27.4406 21.2646Z" fill="#1C1C1E"/>
<path d="M18.7261 22.8486H18.6691C15.9669 22.738 13.5412 22.1547 11.747 21.2663C11.5219 21.9464 11.4087 22.6585 11.4119 23.375C11.4119 26.1642 13.0537 28.4254 15.0807 28.4254C16.6974 28.4254 18.0694 26.9805 18.5569 24.9808C18.6844 24.455 18.7491 23.916 18.7495 23.375C18.7462 23.1956 18.7378 23.0213 18.7261 22.8486Z" fill="#1C1C1E"/>
</g>
<defs>
<clipPath id="clip0_0_1">
<rect width="39.1875" height="38" fill="white"/>
</clipPath>
</defs>
</svg>
